{
	"asset":{
		"version":"2.0",
		"generator":"Created using the official Cinema 4D glTF Exporter 1.000x284978"
	},
	"scenes":[{
		"nodes":[0]
	}],
	"nodes":[{
		"name":"jug_070",
		"mesh":0,
		"translation":[0.005200207699090242,
		0.00036287656985223293,
		-0.00003171322532580234],
		"rotation":[0.0,
		0.0,
		0.0,
		-1.0],
		"scale":[1.0,
		1.0,
		1.0]
	}],
	"meshes":[{
		"name":"jug_070",
		"primitives":[{
			"attributes":{
				"POSITION":1,
				"NORMAL":2,
				"TEXCOORD_0":3
			},
			"indices":0
		}]
	}],
	"accessors":[{
		"bufferView":0,
		"type":"SCALAR",
		"componentType":5123,
		"count":4176,
		"min":[0],
		"byteOffset":0,
		"max":[909]
	},
	{
		"bufferView":1,
		"type":"VEC3",
		"componentType":5126,
		"count":910,
		"min":[-3.1879680156707765,
		-4.856142044067383,
		-1.7901790142059327],
		"byteOffset":0,
		"max":[3.1879680156707765,
		4.856142044067383,
		1.7901790142059327]
	},
	{
		"bufferView":1,
		"type":"VEC3",
		"componentType":5126,
		"count":910,
		"min":[-0.9998435974121094,
		-1.0,
		-1.0],
		"byteOffset":12,
		"max":[0.999912679195404,
		0.999971866607666,
		0.9995660781860352]
	},
	{
		"bufferView":1,
		"type":"VEC2",
		"componentType":5126,
		"count":910,
		"min":[0.006238000001758337,
		0.010284999385476113],
		"byteOffset":24,
		"max":[0.9935590028762817,
		0.9910299777984619]
	}],
	"bufferViews":[{
		"buffer":0,
		"byteOffset":0,
		"target":34963,
		"byteLength":8352
	},
	{
		"buffer":0,
		"byteOffset":8352,
		"target":34962,
		"byteLength":29120,
		"byteStride":32
	}],
	"buffers":[{
		"uri":"data:application/octet-stream;base64,",
		"byteLength":37472
	}]
}